<?xml version="1.0" encoding="UTF-8"?>
<svg id="_레이어_1" data-name="레이어 1" xmlns="http://www.w3.org/2000/svg" viewBox="0 0 200 200">
  <rect x="87.36" y="13.98" width="25.27" height="27.24"/>
  <rect x="87.36" y="158.78" width="25.27" height="27.24"/>
  <path d="M100,90.06c16.31,0,29.57,13.27,29.57,29.57s-13.27,29.58-29.57,29.58-29.58-13.27-29.58-29.58,13.27-29.57,29.58-29.57ZM100,129.21c5.28,0,9.57-4.3,9.57-9.58s-4.29-9.57-9.57-9.57-9.58,4.29-9.58,9.57,4.3,9.58,9.58,9.58Z"/>
  <path d="M100,50.91c16.31,0,29.57,13.27,29.57,29.57s-13.27,29.58-29.57,29.58-29.58-13.27-29.58-29.58,13.27-29.57,29.58-29.57ZM100,90.06c5.28,0,9.57-4.3,9.57-9.58s-4.29-9.57-9.57-9.57-9.58,4.29-9.58,9.57,4.3,9.58,9.58,9.58Z"/>
</svg>